<svg xmlns="http://www.w3.org/2000/svg" viewBox="0 0 48 48"><path fill="#c0e40e" d="M24 14c-6.065 0-11 4.935-11 11s4.935 11 11 11 11-4.935 11-11-4.935-11-11-11zm0 19c-4.411 0-8-3.589-8-8s3.589-8 8-8 8 3.589 8 8-3.589 8-8 8zM12.277 18.492l-1.244-1.462a1.527 1.527 0 0 1 .191-2.145L15.42 11.3c.642-.536 1.675-.41 2.214.233l1.462 1.719a13.496 13.496 0 0 0-6.571 5.53l-.248-.29zm24.797-1.5l-1.562 1.867a13.489 13.489 0 0 0-6.535-5.574l1.45-1.733c.532-.646 1.564-.782 2.21-.25l4.228 3.546a1.53 1.53 0 0 1 .209 2.144zM25 23.277v-3.762a.53.53 0 0 0-.517-.515h-.982c-.274 0-.5.24-.5.516L23 23.277c-.3.175-.548.423-.723.723H20.5c-.275 0-.5.273-.5.548v.952c0 .275.225.5.5.5h1.777c.346.595.984 1 1.723 1a1.994 1.994 0 1 0 1-3.723z"/></svg>