<svg xmlns="http://www.w3.org/2000/svg" viewBox="0 0 48 48"><path d="M10 14a1 1 0 0 0 1 1h1.709l4.32 18c.104.5.498 1 .971 1h1.092a1.483 1.483 0 0 0-.092.5 1.5 1.5 0 0 0 3 0c0-.176-.036-.343-.092-.5h5.184a1.483 1.483 0 0 0-.092.5 1.5 1.5 0 0 0 3 0c0-.176-.036-.343-.092-.5H31a1 1 0 1 0 0-2H18.791l-.947-4H32.5a1 1 0 0 0 .977-.783l2-9a1.006 1.006 0 0 0-.196-.843A1.006 1.006 0 0 0 34.5 17H15.238l-.766-3.231A.998.998 0 0 0 13.5 13H11a1 1 0 0 0-1 1zm22 9h.364l-.222 1H32v-1zm0-2h.809l-.222 1H32v-1zm0-2h1.254l-.223 1H32v-1zm-2 6h1v1h-1v-1zm0-2h1v1h-1v-1zm0-2h1v1h-1v-1zm0-2h1v1h-1v-1zm-2 6h1v1h-1v-1zm0-2h1v1h-1v-1zm0-2h1v1h-1v-1zm0-2h1v1h-1v-1zm-2 6h1v1h-1v-1zm0-2h1v1h-1v-1zm0-2h1v1h-1v-1zm0-2h1v1h-1v-1zm-2 6h1v1h-1v-1zm0-2h1v1h-1v-1zm0-2h1v1h-1v-1zm0-2h1v1h-1v-1zm-2 6h1v1h-1v-1zm0-2h1v1h-1v-1zm0-2h1v1h-1v-1zm0-2h1v1h-1v-1zm-2 6h1v1h-1v-1zm0-2h1v1h-1v-1zm0-2h1v1h-1v-1zm0-2h1v1h-1v-1zm-2 6h1v1h-1v-1zm0-2h1v1h-1v-1zm0-2h1v1h-1v-1zm0-2h1v1h-1v-1zm-1.341 4H17v1h-.103l-.238-1zm-.468-2H17v1h-.578l-.231-1zm-.445-2H17v1h-1.031l-.223-1z"/></svg>